  0
SECTION
  2
HEADER
  9
$ACADVER
  1
AC1015
  9
$ACADMAINTVER
 70
     6
  9
$DWGCODEPAGE
  3
ANSI_1252
  9
$INSBASE
 10
0.0
 20
0.0
 30
0.0
  9
$EXTMIN
 10
0.0
 20
0.0
 30
0.0
  9
$EXTMAX
 10
3000.0
 20
1500.0
 30
0.0
  9
$LIMMIN
 10
0.0
 20
0.0
  9
$LIMMAX
 10
3000.0
 20
1500.0
  9
$ORTHOMODE
 70
     0
  9
$REGENMODE
 70
     1
  9
$FILLMODE
 70
     1
  9
$QTEXTMODE
 70
     0
  9
$MIRRTEXT
 70
     1
  9
$LTSCALE
 40
1.0
  9
$ATTMODE
 70
     1
  9
$TEXTSIZE
 40
3.0
  9
$TRACEWID
 40
1.0
  9
$TEXTSTYLE
  7
Standard
  9
$CLAYER
  8
0
  9
$CELTYPE
  6
ByLayer
  9
$CECOLOR
 62
   256
  9
$CELTSCALE
 40
1.0
  9
$DISPSILH
 70
     0
  9
$DIMSCALE
 40
1.0
  9
$DIMASZ
 40
3.0
  9
$DIMEXO
 40
0.0
  9
$DIMDLI
 40
3.75
  9
$DIMRND
 40
0.0
  9
$DIMDLE
 40
0.0
  9
$DIMEXE
 40
1.0
  9
$DIMTP
 40
0.0
  9
$DIMTM
 40
0.0
  9
$DIMTXT
 40
3.0
  9
$DIMCEN
 40
2.5
  9
$DIMTSZ
 40
0.0
  9
$DIMTOL
 70
     0
  9
$DIMLIM
 70
     0
  9
$DIMTIH
 70
     1
  9
$DIMTOH
 70
     1
  9
$DIMSE1
 70
     0
  9
$DIMSE2
 70
     0
  9
$DIMTAD
 70
     1
  9
$DIMZIN
 70
     0
  9
$DIMBLK
  1

  9
$DIMASO
 70
     1
  9
$DIMSHO
 70
     1
  9
$DIMPOST
  1

  9
$DIMAPOST
  1

  9
$DIMALT
 70
     0
  9
$DIMALTD
 70
     3
  9
$DIMALTF
 40
0.0393700787
  9
$DIMLFAC
 40
1.0
  9
$DIMTOFL
 70
     1
  9
$DIMTVP
 40
0.0
  9
$DIMTIX
 70
     0
  9
$DIMSOXD
 70
     0
  9
$DIMSAH
 70
     0
  9
$DIMBLK1
  1

  9
$DIMBLK2
  1

  9
$DIMSTYLE
  2
ISO-25
  9
$DIMCLRD
 70
     0
  9
$DIMCLRE
 70
     0
  9
$DIMCLRT
 70
     0
  9
$DIMTFAC
 40
1.0
  9
$DIMGAP
 40
1.0
  9
$DIMJUST
 70
     0
  9
$DIMSD1
 70
     0
  9
$DIMSD2
 70
     0
  9
$DIMTOLJ
 70
     0
  9
$DIMTZIN
 70
     0
  9
$DIMALTZ
 70
     0
  9
$DIMALTTZ
 70
     0
  9
$DIMUPT
 70
     0
  9
$DIMDEC
 70
     0
  9
$DIMTDEC
 70
     1
  9
$DIMALTU
 70
     2
  9
$DIMALTTD
 70
     3
  9
$DIMTXSTY
  7
Standard
  9
$DIMAUNIT
 70
     0
  9
$DIMADEC
 70
     0
  9
$DIMALTRND
 40
0.0
  9
$DIMAZIN
 70
     0
  9
$DIMDSEP
 70
    44
  9
$DIMATFIT
 70
     3
  9
$DIMFRAC
 70
     0
  9
$DIMLDRBLK
  1

  9
$DIMLUNIT
 70
     2
  9
$DIMLWD
 70
    -2
  9
$DIMLWE
 70
    -2
  9
$DIMTMOVE
 70
     0
  9
$LUNITS
 70
     2
  9
$LUPREC
 70
     0
  9
$SKETCHINC
 40
1.0
  9
$FILLETRAD
 40
10.0
  9
$AUNITS
 70
     0
  9
$AUPREC
 70
     0
  9
$MENU
  1
.
  9
$ELEVATION
 40
0.0
  9
$PELEVATION
 40
0.0
  9
$THICKNESS
 40
0.0
  9
$LIMCHECK
 70
     0
  9
$CHAMFERA
 40
0.0
  9
$CHAMFERB
 40
0.0
  9
$CHAMFERC
 40
0.0
  9
$CHAMFERD
 40
0.0
  9
$SKPOLY
 70
     0
  9
$TDCREATE
 40
2459090.307490903
  9
$TDUCREATE
 40
2459090.224157569
  9
$TDUPDATE
 40
2459090.307491621
  9
$TDUUPDATE
 40
2459090.224158287
  9
$TDINDWG
 40
0.0000000116
  9
$TDUSRTIMER
 40
0.0000000116
  9
$USRTIMER
 70
     1
  9
$ANGBASE
 50
0.0
  9
$ANGDIR
 70
     0
  9
$PDMODE
 70
     0
  9
$PDSIZE
 40
-1.0
  9
$PLINEWID
 40
0.0
  9
$SPLFRAME
 70
     0
  9
$SPLINETYPE
 70
     6
  9
$SPLINESEGS
 70
     8
  9
$HANDSEED
  5
15D
  9
$SURFTAB1
 70
     6
  9
$SURFTAB2
 70
     6
  9
$SURFTYPE
 70
     6
  9
$SURFU
 70
     6
  9
$SURFV
 70
     6
  9
$UCSBASE
  2

  9
$UCSNAME
  2

  9
$UCSORG
 10
0.0
 20
0.0
 30
0.0
  9
$UCSXDIR
 10
1.0
 20
0.0
 30
0.0
  9
$UCSYDIR
 10
0.0
 20
1.0
 30
0.0
  9
$UCSORTHOREF
  2

  9
$UCSORTHOVIEW
 70
     0
  9
$UCSORGTOP
 10
0.0
 20
0.0
 30
0.0
  9
$UCSORGBOTTOM
 10
0.0
 20
0.0
 30
0.0
  9
$UCSORGLEFT
 10
0.0
 20
0.0
 30
0.0
  9
$UCSORGRIGHT
 10
0.0
 20
0.0
 30
0.0
  9
$UCSORGFRONT
 10
0.0
 20
0.0
 30
0.0
  9
$UCSORGBACK
 10
0.0
 20
0.0
 30
0.0
  9
$PUCSBASE
  2

  9
$PUCSNAME
  2

  9
$PUCSORG
 10
0.0
 20
0.0
 30
0.0
  9
$PUCSXDIR
 10
1.0
 20
0.0
 30
0.0
  9
$PUCSYDIR
 10
0.0
 20
1.0
 30
0.0
  9
$PUCSORTHOREF
  2

  9
$PUCSORTHOVIEW
 70
     0
  9
$PUCSORGTOP
 10
0.0
 20
0.0
 30
0.0
  9
$PUCSORGBOTTOM
 10
0.0
 20
0.0
 30
0.0
  9
$PUCSORGLEFT
 10
0.0
 20
0.0
 30
0.0
  9
$PUCSORGRIGHT
 10
0.0
 20
0.0
 30
0.0
  9
$PUCSORGFRONT
 10
0.0
 20
0.0
 30
0.0
  9
$PUCSORGBACK
 10
0.0
 20
0.0
 30
0.0
  9
$USERI1
 70
     0
  9
$USERI2
 70
     0
  9
$USERI3
 70
     0
  9
$USERI4
 70
     0
  9
$USERI5
 70
     0
  9
$USERR1
 40
0.0
  9
$USERR2
 40
0.0
  9
$USERR3
 40
0.0
  9
$USERR4
 40
0.0
  9
$USERR5
 40
0.0
  9
$WORLDVIEW
 70
     1
  9
$SHADEDGE
 70
     3
  9
$SHADEDIF
 70
    70
  9
$TILEMODE
 70
     1
  9
$MAXACTVP
 70
    64
  9
$PINSBASE
 10
0.0
 20
0.0
 30
0.0
  9
$PLIMCHECK
 70
     0
  9
$PEXTMIN
 10
1.0000000000E+20
 20
1.0000000000E+20
 30
1.0000000000E+20
  9
$PEXTMAX
 10
-1.0000000000E+20
 20
-1.0000000000E+20
 30
-1.0000000000E+20
  9
$PLIMMIN
 10
0.0
 20
0.0
  9
$PLIMMAX
 10
420.0
 20
297.0
  9
$UNITMODE
 70
     0
  9
$VISRETAIN
 70
     1
  9
$PLINEGEN
 70
     0
  9
$PSLTSCALE
 70
     1
  9
$TREEDEPTH
 70
  3020
  9
$CMLSTYLE
  2
Standard
  9
$CMLJUST
 70
     0
  9
$CMLSCALE
 40
20.0
  9
$PROXYGRAPHICS
 70
     1
  9
$MEASUREMENT
 70
     1
  9
$CELWEIGHT
370
    -1
  9
$ENDCAPS
280
     0
  9
$JOINSTYLE
280
     0
  9
$LWDISPLAY
290
     1
  9
$INSUNITS
 70
     4
  9
$HYPERLINKBASE
  1

  9
$STYLESHEET
  1

  9
$XEDIT
290
     1
  9
$CEPSNTYPE
380
     0
  9
$PSTYLEMODE
290
     1
  9
$FINGERPRINTGUID
  2
{94e7aa94-75e5-49e6-9391-7b21d540ed64}
  9
$VERSIONGUID
  2
{FAEB1C32-E019-11D5-929B-00C0DF256EC4}
  9
$EXTNAMES
290
     1
  9
$PSVPSCALE
 40
0.0
  9
$OLESTARTUP
290
     0
  0
ENDSEC
  0
SECTION
  2
CLASSES
  0
CLASS
  1
ACDBDICTIONARYWDFLT
  2
AcDbDictionaryWithDefault
  3
ObjectDBX Classes
 90
        0
280
     0
281
     0
  0
CLASS
  1
VISUALSTYLE
  2
AcDbVisualStyle
  3
ObjectDBX Classes
 90
     4095
280
     0
281
     0
  0
CLASS
  1
MATERIAL
  2
AcDbMaterial
  3
ObjectDBX Classes
 90
     1153
280
     0
281
     0
  0
CLASS
  1
SCALE
  2
AcDbScale
  3
ObjectDBX Classes
 90
     1153
280
     0
281
     0
  0
CLASS
  1
TABLESTYLE
  2
AcDbTableStyle
  3
ObjectDBX Classes
 90
     4095
280
     0
281
     0
  0
CLASS
  1
MLEADERSTYLE
  2
AcDbMLeaderStyle
  3
ACDB_MLEADERSTYLE_CLASS
 90
     4095
280
     0
281
     0
  0
CLASS
  1
SUN
  2
AcDbSun
  3
SCENEOE
 90
     1153
280
     0
281
     0
  0
CLASS
  1
ACDBPLACEHOLDER
  2
AcDbPlaceHolder
  3
ObjectDBX Classes
 90
        0
280
     0
281
     0
  0
CLASS
  1
LAYOUT
  2
AcDbLayout
  3
ObjectDBX Classes
 90
        0
280
     0
281
     0
  0
ENDSEC
  0
SECTION
  2
TABLES
  0
TABLE
  2
VPORT
  5
8
330
0
100
AcDbSymbolTable
 70
     1
  0
VPORT
  5
29
330
8
100
AcDbSymbolTableRecord
100
AcDbViewportTableRecord
  2
*Active
 70
     0
 10
0.0
 20
0.0
 11
1.0
 21
1.0
 12
1500.0
 22
750.0
 13
0.0
 23
0.0
 14
10.0
 24
10.0
 15
10.0
 25
10.0
 16
0.0
 26
0.0
 36
1.0
 17
0.0
 27
0.0
 37
0.0
 40
1500.0
 41
2.0
 42
50.0
 43
0.0
 44
0.0
 50
0.0
 51
0.0
 71
     0
 72
  2000
 73
     1
 74
     3
 75
     0
 76
     0
 77
     0
 78
     0
281
     0
 65
     1
110
0.0
120
0.0
130
0.0
111
1.0
121
0.0
131
0.0
112
0.0
122
1.0
132
0.0
 79
     0
146
0.0
  0
ENDTAB
  0
TABLE
  2
LTYPE
  5
5
330
0
100
AcDbSymbolTable
 70
     6
  0
LTYPE
  5
14
330
5
100
AcDbSymbolTableRecord
100
AcDbLinetypeTableRecord
  2
ByBlock
 70
     0
  3

 72
    65
 73
     0
 40
0.0
  0
LTYPE
  5
15
330
5
100
AcDbSymbolTableRecord
100
AcDbLinetypeTableRecord
  2
ByLayer
 70
     0
  3

 72
    65
 73
     0
 40
0.0
  0
LTYPE
  5
16
330
5
100
AcDbSymbolTableRecord
100
AcDbLinetypeTableRecord
  2
Continuous
 70
     0
  3
Solid line
 72
    65
 73
     0
 40
0.0
  0
LTYPE
  5
6E
330
5
100
AcDbSymbolTableRecord
100
AcDbLinetypeTableRecord
  2
HIDDEN
 70
     0
  3
Hidden __ __ __ __ __ __ __ __ __ __ __ __ __ __
 72
    65
 73
     2
 40
1.905
 49
1.27
 74
     0
 49
-0.635
 74
     0
  0
LTYPE
  5
6F
330
5
100
AcDbSymbolTableRecord
100
AcDbLinetypeTableRecord
  2
PHANTOM
 70
     0
  3
Phantom ______  __  __  ______  __  __  ______
 72
    65
 73
     6
 40
12.7
 49
6.35
 74
     0
 49
-1.27
 74
     0
 49
1.27
 74
     0
 49
-1.27
 74
     0
 49
1.27
 74
     0
 49
-1.27
 74
     0
  0
LTYPE
  5
70
330
5
100
AcDbSymbolTableRecord
100
AcDbLinetypeTableRecord
  2
CENTER
 70
     0
  3
Center ____ _ ____ _ ____ _ ____ _ ____ _ ____
 72
    65
 73
     4
 40
10.16
 49
6.35
 74
     0
 49
-1.27
 74
     0
 49
1.27
 74
     0
 49
-1.27
 74
     0
  0
LTYPE
  5
71
330
5
100
AcDbSymbolTableRecord
100
AcDbLinetypeTableRecord
  2
CENTERX2
 70
     0
  3
Center (2x) ________  __  ________  __  _____
 72
    65
 73
     4
 40
20.32
 49
12.7
 74
     0
 49
-2.54
 74
     0
 49
2.54
 74
     0
 49
-2.54
 74
     0
  0
LTYPE
  5
72
330
5
100
AcDbSymbolTableRecord
100
AcDbLinetypeTableRecord
  2
DOT2
 70
     0
  3
Dot (.5x) ........................................
 72
    65
 73
     2
 40
0.635
 49
0.0
 74
     0
 49
-0.635
 74
     0
  0
ENDTAB
  0
TABLE
  2
LAYER
  5
2
330
0
100
AcDbSymbolTable
 70
    20
  0
LAYER
  5
10
330
2
100
AcDbSymbolTableRecord
100
AcDbLayerTableRecord
  2
0
 70
     0
 62
     7
  6
Continuous
370
    -3
390
F
  0
LAYER
  5
73
330
2
100
AcDbSymbolTableRecord
100
AcDbLayerTableRecord
  2
GRUNDLINIE
 70
     0
 62
     7
  6
Continuous
370
    35
390
F
  0
LAYER
  5
74
330
2
100
AcDbSymbolTableRecord
100
AcDbLayerTableRecord
  2
VERDEKT
 70
     0
 62
     3
  6
HIDDEN
370
    -3
390
F
  0
LAYER
  5
75
330
2
100
AcDbSymbolTableRecord
100
AcDbLayerTableRecord
  2
GEWINDE
 70
     0
 62
    11
  6
HIDDEN
370
    -3
390
F
  0
LAYER
  5
76
330
2
100
AcDbSymbolTableRecord
100
AcDbLayerTableRecord
  2
SCHRAFFUR
 70
     0
 62
     4
  6
Continuous
370
    -3
390
F
  0
LAYER
  5
77
330
2
100
AcDbSymbolTableRecord
100
AcDbLayerTableRecord
  2
SCHRIFTFELD
 70
     0
 62
     5
  6
Continuous
370
    35
390
F
  0
LAYER
  5
78
330
2
100
AcDbSymbolTableRecord
100
AcDbLayerTableRecord
  2
SCHNITT
 70
     0
 62
     5
  6
CENTER
370
    25
390
F
  0
LAYER
  5
79
330
2
100
AcDbSymbolTableRecord
100
AcDbLayerTableRecord
  2
BEMAßUNG
 70
     0
 62
     1
  6
Continuous
370
    -3
390
F
  0
LAYER
  5
7A
330
2
100
AcDbSymbolTableRecord
100
AcDbLayerTableRecord
  2
HINWEIßLINIE
 70
     0
 62
     3
  6
Continuous
370
    -3
390
F
  0
LAYER
  5
7B
330
2
100
AcDbSymbolTableRecord
100
AcDbLayerTableRecord
  2
TEXT
 70
     0
 62
     1
  6
Continuous
370
    35
390
F
  0
LAYER
  5
7C
330
2
100
AcDbSymbolTableRecord
100
AcDbLayerTableRecord
  2
KONTUR
 70
     0
 62
     7
  6
Continuous
370
    -3
390
F
  0
LAYER
  5
7D
330
2
100
AcDbSymbolTableRecord
100
AcDbLayerTableRecord
  2
GRAVUR
 70
     0
 62
     2
  6
Continuous
370
    -3
390
F
  0
LAYER
  5
7E
330
2
100
AcDbSymbolTableRecord
100
AcDbLayerTableRecord
  2
STÜCKLISTE
 70
     0
 62
     7
  6
Continuous
370
    -3
390
F
  0
LAYER
  5
7F
330
2
100
AcDbSymbolTableRecord
100
AcDbLayerTableRecord
  2
MITTELLINIE
 70
     0
 62
     1
  6
CENTERX2
370
    -3
390
F
  0
LAYER
  5
80
330
2
100
AcDbSymbolTableRecord
100
AcDbLayerTableRecord
  2
LAYER1
 70
     0
 62
     7
  6
Continuous
370
    -3
390
F
  0
LAYER
  5
81
330
2
100
AcDbSymbolTableRecord
100
AcDbLayerTableRecord
  2
SPI_UNF-B
 70
     0
 62
     7
  6
Continuous
370
    25
390
F
  0
LAYER
  5
82
330
2
100
AcDbSymbolTableRecord
100
AcDbLayerTableRecord
  2
SPI_UNF-U
 70
     0
 62
     7
  6
Continuous
370
    25
390
F
  0
LAYER
  5
83
330
2
100
AcDbSymbolTableRecord
100
AcDbLayerTableRecord
  2
SCHRIFT
 70
     0
 62
     1
  6
Continuous
370
    -3
390
F
  0
LAYER
  5
84
330
2
100
AcDbSymbolTableRecord
100
AcDbLayerTableRecord
  2
LAYER0
 70
     0
 62
     7
  6
Continuous
370
    -3
390
F
  0
LAYER
  5
85
330
2
100
AcDbSymbolTableRecord
100
AcDbLayerTableRecord
  2
VERDECKT
 70
     0
 62
     3
  6
HIDDEN
370
    -3
390
F
  0
ENDTAB
  0
TABLE
  2
STYLE
  5
3
330
0
100
AcDbSymbolTable
 70
     3
  0
STYLE
  5
11
330
3
100
AcDbSymbolTableRecord
100
AcDbTextStyleTableRecord
  2
Standard
 70
     0
 40
0.0
 41
1.0
 50
0.0
 71
     0
 42
3.0
  3
txt
  4

  0
STYLE
  5
97
330
3
100
AcDbSymbolTableRecord
100
AcDbTextStyleTableRecord
  2
SLDTEXTSTYLE0
 70
     0
 40
0.0
 41
0.605
 50
0.0
 71
     0
 42
3.0
  3
TXT
  4

  0
STYLE
  5
C9
330
3
100
AcDbSymbolTableRecord
100
AcDbTextStyleTableRecord
  2
SLDTEXTSTYLE1
 70
     0
 40
0.0
 41
0.638185654
 50
0.0
 71
     0
 42
3.0
  3
TXT
  4

  0
ENDTAB
  0
TABLE
  2
VIEW
  5
6
330
0
100
AcDbSymbolTable
 70
     0
  0
ENDTAB
  0
TABLE
  2
UCS
  5
7
330
0
100
AcDbSymbolTable
 70
     0
  0
ENDTAB
  0
TABLE
  2
APPID
  5
9
330
0
100
AcDbSymbolTable
 70
     1
  0
APPID
  5
12
330
9
100
AcDbSymbolTableRecord
100
AcDbRegAppTableRecord
  2
ACAD
 70
     0
  0
ENDTAB
  0
TABLE
  2
DIMSTYLE
  5
A
330
0
100
AcDbSymbolTable
 70
     1
100
AcDbDimStyleTable
  0
DIMSTYLE
105
27
330
A
100
AcDbSymbolTableRecord
100
AcDbDimStyleTableRecord
  2
ISO-25
 70
     0
 41
2.5
 42
0.625
 43
3.75
 44
1.25
 73
     0
 74
     0
 77
     1
 78
     8
140
2.5
141
2.5
143
0.0393700787
147
0.625
171
     3
172
     1
178
     0
271
     2
272
     2
274
     3
278
    44
283
     0
284
     8
340
11
  0
ENDTAB
  0
TABLE
  2
BLOCK_RECORD
  5
1
330
0
100
AcDbSymbolTable
 70
    30
  0
BLOCK_RECORD
  5
1F
330
1
100
AcDbSymbolTableRecord
100
AcDbBlockTableRecord
  2
*Model_Space
340
22
  0
BLOCK_RECORD
  5
1B
330
1
100
AcDbSymbolTableRecord
100
AcDbBlockTableRecord
  2
*Paper_Space
340
1E
  0
BLOCK_RECORD
  5
23
330
1
100
AcDbSymbolTableRecord
100
AcDbBlockTableRecord
  2
*Paper_Space0
340
26
  0
BLOCK_RECORD
  5
86
330
1
100
AcDbSymbolTableRecord
100
AcDbBlockTableRecord
  2
Versionstabelle Husmann_1
340
0
  0
BLOCK_RECORD
  5
94
330
1
100
AcDbSymbolTableRecord
100
AcDbBlockTableRecord
  2
SW_NOTE_0
340
0
102
{BLKREFS
331
99
102
}
  0
BLOCK_RECORD
  5
9A
330
1
100
AcDbSymbolTableRecord
100
AcDbBlockTableRecord
  2
SW_NOTE_0_1
340
0
102
{BLKREFS
331
9E
102
}
  0
BLOCK_RECORD
  5
9F
330
1
100
AcDbSymbolTableRecord
100
AcDbBlockTableRecord
  2
SW_NOTE_0_2
340
0
102
{BLKREFS
331
A3
102
}
  0
BLOCK_RECORD
  5
A4
330
1
100
AcDbSymbolTableRecord
100
AcDbBlockTableRecord
  2
SW_NOTE_0_3
340
0
102
{BLKREFS
331
A8
102
}
  0
BLOCK_RECORD
  5
A9
330
1
100
AcDbSymbolTableRecord
100
AcDbBlockTableRecord
  2
SCHRIFTFELD 2015-09-22_1
340
0
  0
BLOCK_RECORD
  5
C6
330
1
100
AcDbSymbolTableRecord
100
AcDbBlockTableRecord
  2
SW_NOTE_0_4
340
0
102
{BLKREFS
331
CB
102
}
  0
BLOCK_RECORD
  5
CC
330
1
100
AcDbSymbolTableRecord
100
AcDbBlockTableRecord
  2
SW_NOTE_0_5
340
0
102
{BLKREFS
331
D0
102
}
  0
BLOCK_RECORD
  5
D1
330
1
100
AcDbSymbolTableRecord
100
AcDbBlockTableRecord
  2
SW_NOTE_0_6
340
0
102
{BLKREFS
331
D7
102
}
  0
BLOCK_RECORD
  5
D8
330
1
100
AcDbSymbolTableRecord
100
AcDbBlockTableRecord
  2
SW_NOTE_0_7
340
0
102
{BLKREFS
331
DC
102
}
  0
BLOCK_RECORD
  5
DD
330
1
100
AcDbSymbolTableRecord
100
AcDbBlockTableRecord
  2
SW_NOTE_0_8
340
0
102
{BLKREFS
331
E1
102
}
  0
BLOCK_RECORD
  5
E2
330
1
100
AcDbSymbolTableRecord
100
AcDbBlockTableRecord
  2
SW_NOTE_0_9
340
0
102
{BLKREFS
331
E5
102
}
  0
BLOCK_RECORD
  5
E6
330
1
100
AcDbSymbolTableRecord
100
AcDbBlockTableRecord
  2
SW_NOTE_0_10
340
0
102
{BLKREFS
331
EA
102
}
  0
BLOCK_RECORD
  5
EB
330
1
100
AcDbSymbolTableRecord
100
AcDbBlockTableRecord
  2
SW_NOTE_0_11
340
0
102
{BLKREFS
331
EF
102
}
  0
BLOCK_RECORD
  5
F0
330
1
100
AcDbSymbolTableRecord
100
AcDbBlockTableRecord
  2
SW_NOTE_0_12
340
0
102
{BLKREFS
331
F4
102
}
  0
BLOCK_RECORD
  5
F5
330
1
100
AcDbSymbolTableRecord
100
AcDbBlockTableRecord
  2
SW_NOTE_0_13
340
0
102
{BLKREFS
331
F9
102
}
  0
BLOCK_RECORD
  5
FA
330
1
100
AcDbSymbolTableRecord
100
AcDbBlockTableRecord
  2
SW_NOTE_0_14
340
0
102
{BLKREFS
331
FE
102
}
  0
BLOCK_RECORD
  5
FF
330
1
100
AcDbSymbolTableRecord
100
AcDbBlockTableRecord
  2
SW_NOTE_0_15
340
0
102
{BLKREFS
331
103
102
}
  0
BLOCK_RECORD
  5
104
330
1
100
AcDbSymbolTableRecord
100
AcDbBlockTableRecord
  2
SW_NOTE_0_16
340
0
102
{BLKREFS
331
108
102
}
  0
BLOCK_RECORD
  5
109
330
1
100
AcDbSymbolTableRecord
100
AcDbBlockTableRecord
  2
SW_NOTE_0_17
340
0
102
{BLKREFS
331
10D
102
}
  0
BLOCK_RECORD
  5
10E
330
1
100
AcDbSymbolTableRecord
100
AcDbBlockTableRecord
  2
SW_NOTE_0_18
340
0
102
{BLKREFS
331
112
102
}
  0
BLOCK_RECORD
  5
113
330
1
100
AcDbSymbolTableRecord
100
AcDbBlockTableRecord
  2
SW_NOTE_0_19
340
0
102
{BLKREFS
331
117
102
}
  0
BLOCK_RECORD
  5
118
330
1
100
AcDbSymbolTableRecord
100
AcDbBlockTableRecord
  2
SW_NOTE_0_20
340
0
102
{BLKREFS
331
11C
102
}
  0
BLOCK_RECORD
  5
11D
330
1
100
AcDbSymbolTableRecord
100
AcDbBlockTableRecord
  2
SW_NOTE_0_21
340
0
102
{BLKREFS
331
121
102
}
  0
BLOCK_RECORD
  5
122
330
1
100
AcDbSymbolTableRecord
100
AcDbBlockTableRecord
  2
SW_NOTE_0_22
340
0
102
{BLKREFS
331
126
102
}
  0
BLOCK_RECORD
  5
127
330
1
100
AcDbSymbolTableRecord
100
AcDbBlockTableRecord
  2
SW_NOTE_0_23
340
0
102
{BLKREFS
331
12B
102
}
  0
BLOCK_RECORD
  5
12C
330
1
100
AcDbSymbolTableRecord
100
AcDbBlockTableRecord
  2
SW_NOTE_0_24
340
0
102
{BLKREFS
331
130
102
}
  0
BLOCK_RECORD
  5
131
330
1
100
AcDbSymbolTableRecord
100
AcDbBlockTableRecord
  2
SW_NOTE_0_25
340
0
102
{BLKREFS
331
135
102
}
  0
BLOCK_RECORD
  5
148
330
1
100
AcDbSymbolTableRecord
100
AcDbBlockTableRecord
  2
SW_NOTE_0_26
340
0
102
{BLKREFS
331
154
102
}
  0
ENDTAB
  0
ENDSEC
  0
SECTION
  2
BLOCKS
  0
BLOCK
  5
20
330
1F
100
AcDbEntity
  8
0
100
AcDbBlockBegin
  2
*Model_Space
 70
     0
 10
0.0
 20
0.0
 30
0.0
  3
*Model_Space
  1

  0
ENDBLK
  5
21
330
1F
100
AcDbEntity
  8
0
100
AcDbBlockEnd
  0
BLOCK
  5
1C
330
1B
100
AcDbEntity
 67
     1
  8
0
100
AcDbBlockBegin
  2
*Paper_Space
 70
     0
 10
0.0
 20
0.0
 30
0.0
  3
*Paper_Space
  1

  0
ENDBLK
  5
1D
330
1B
100
AcDbEntity
 67
     1
  8
0
100
AcDbBlockEnd
  0
BLOCK
  5
24
330
23
100
AcDbEntity
  8
0
100
AcDbBlockBegin
  2
*Paper_Space0
 70
     0
 10
0.0
 20
0.0
 30
0.0
  3
*Paper_Space0
  1

  0
ENDBLK
  5
25
330
23
100
AcDbEntity
  8
0
100
AcDbBlockEnd
  0
BLOCK
  5
87
330
86
100
AcDbEntity
  8
0
100
AcDbBlockBegin
  2
Versionstabelle Husmann_1
 70
     0
 10
0.0
 20
0.0
 30
0.0
  3
Versionstabelle Husmann_1
  1

  0
LINE
  5
89
330
86
100
AcDbEntity
  8
BEMAßUNG
 62
     7
100
AcDbLine
 10
113.9772137232
 20
48.8174142422
 30
0.0
 11
207.4439939799
 21
48.8174142422
 31
0.0
  0
LINE
  5
8A
330
86
100
AcDbEntity
  8
SCHRIFTFELD
 62
     5
100
AcDbLine
 10
113.9772137232
 20
36.2524331419
 30
0.0
 11
207.4439939799
 21
36.2524331419
 31
0.0
  0
LINE
  5
8B
330
86
100
AcDbEntity
  8
SCHRIFTFELD
 62
     5
100
AcDbLine
 10
113.9772137232
 20
36.2524331419
 30
0.0
 11
113.9772137232
 21
51.7640340485
 31
0.0
  0
LINE
  5
8C
330
86
100
AcDbEntity
  8
SCHRIFTFELD
 62
     5
100
AcDbLine
 10
113.9772137232
 20
51.7640340485
 30
0.0
 11
207.4439939799
 21
51.7640340485
 31
0.0
  0
LINE
  5
8D
330
86
100
AcDbEntity
  8
SCHRIFTFELD
 62
     5
100
AcDbLine
 10
207.4439939799
 20
36.2524331419
 30
0.0
 11
207.4439939799
 21
51.7640340485
 31
0.0
  0
LINE
  5
8E
330
86
100
AcDbEntity
  8
BEMAßUNG
 62
     7
100
AcDbLine
 10
113.9772137232
 20
45.6350648514
 30
0.0
 11
207.4439939799
 21
45.6350648514
 31
0.0
  0
LINE
  5
8F
330
86
100
AcDbEntity
  8
BEMAßUNG
 62
     7
100
AcDbLine
 10
113.9772137232
 20
42.4527154605
 30
0.0
 11
207.4439939799
 21
42.4527154605
 31
0.0
  0
LINE
  5
90
330
86
100
AcDbEntity
  8
BEMAßUNG
 62
     7
100
AcDbLine
 10
113.9772137232
 20
39.388230862
 30
0.0
 11
207.4439939799
 21
39.388230862
 31
0.0
  0
LINE
  5
91
330
86
100
AcDbEntity
  8
BEMAßUNG
 62
     7
100
AcDbLine
 10
132.2477793586
 20
51.7640340485
 30
0.0
 11
132.2477793586
 21
36.2524331419
 31
0.0
  0
LINE
  5
92
330
86
100
AcDbEntity
  8
BEMAßUNG
 62
     7
100
AcDbLine
 10
137.9405298879
 20
51.7640340485
 30
0.0
 11
137.9405298879
 21
36.2524331419
 31
0.0
  0
LINE
  5
93
330
86
100
AcDbEntity
  8
BEMAßUNG
 62
     7
100
AcDbLine
 10
196.2245195169
 20
51.7640340485
 30
0.0
 11
196.2245195169
 21
36.2524331419
 31
0.0
  0
INSERT
  5
99
330
86
100
AcDbEntity
  8
TEXT
 62
     7
100
AcDbBlockReference
  2
SW_NOTE_0
 10
197.4160375668
 20
37.1075094402
 30
0.0
  0
INSERT
  5
9E
330
86
100
AcDbEntity
  8
TEXT
 62
     7
100
AcDbBlockReference
  2
SW_NOTE_0_1
 10
158.6258912785
 20
37.1075094402
 30
0.0
  0
INSERT
  5
A3
330
86
100
AcDbEntity
  8
TEXT
 62
     7
100
AcDbBlockReference
  2
SW_NOTE_0_2
 10
132.8020333436
 20
37.1075094402
 30
0.0
  0
INSERT
  5
A8
330
86
100
AcDbEntity
  8
TEXT
 62
     7
100
AcDbBlockReference
  2
SW_NOTE_0_3
 10
118.6616487269
 20
37.1075094402
 30
0.0
  0
ENDBLK
  5
88
330
86
100
AcDbEntity
  8
0
100
AcDbBlockEnd
  0
BLOCK
  5
95
330
94
100
AcDbEntity
  8
0
100
AcDbBlockBegin
  2
SW_NOTE_0
 70
     0
 10
0.0
 20
0.0
 30
0.0
  3
SW_NOTE_0
  1

  0
MTEXT
  5
98
330
94
100
AcDbEntity
  8
TEXT
 62
     0
100
AcDbMText
 10
0.0
 20
1.2890677398
 30
0.0
 40
1.0
 41
0.0
 71
     1
 72
     1
  1
Datum / Name
  7
SLDTEXTSTYLE0
 73
     1
 44
1.0
  0
ENDBLK
  5
96
330
94
100
AcDbEntity
  8
0
100
AcDbBlockEnd
  0
BLOCK
  5
9B
330
9A
100
AcDbEntity
  8
0
100
AcDbBlockBegin
  2
SW_NOTE_0_1
 70
     0
 10
0.0
 20
0.0
 30
0.0
  3
SW_NOTE_0_1
  1

  0
MTEXT
  5
9D
330
9A
100
AcDbEntity
  8
TEXT
 62
     0
100
AcDbMText
 10
0.0
 20
1.2890677398
 30
0.0
 40
1.0
 41
0.0
 71
     1
 72
     1
  1
Beschreibung
  7
SLDTEXTSTYLE0
 73
     1
 44
1.0
  0
ENDBLK
  5
9C
330
9A
100
AcDbEntity
  8
0
100
AcDbBlockEnd
  0
BLOCK
  5
A0
330
9F
100
AcDbEntity
  8
0
100
AcDbBlockBegin
  2
SW_NOTE_0_2
 70
     0
 10
0.0
 20
0.0
 30
0.0
  3
SW_NOTE_0_2
  1

  0
MTEXT
  5
A2
330
9F
100
AcDbEntity
  8
TEXT
 62
     0
100
AcDbMText
 10
0.0
 20
1.2890677398
 30
0.0
 40
1.0
 41
0.0
 71
     1
 72
     1
  1
Version
  7
SLDTEXTSTYLE0
 73
     1
 44
1.0
  0
ENDBLK
  5
A1
330
9F
100
AcDbEntity
  8
0
100
AcDbBlockEnd
  0
BLOCK
  5
A5
330
A4
100
AcDbEntity
  8
0
100
AcDbBlockBegin
  2
SW_NOTE_0_3
 70
     0
 10
0.0
 20
0.0
 30
0.0
  3
SW_NOTE_0_3
  1

  0
MTEXT
  5
A7
330
A4
100
AcDbEntity
  8
TEXT
 62
     0
100
AcDbMText
 10
0.0
 20
1.2890677398
 30
0.0
 40
1.0
 41
0.0
 71
     1
 72
     1
  1
Änderungindex
  7
SLDTEXTSTYLE0
 73
     1
 44
1.0
  0
ENDBLK
  5
A6
330
A4
100
AcDbEntity
  8
0
100
AcDbBlockEnd
  0
BLOCK
  5
AA
330
A9
100
AcDbEntity
  8
0
100
AcDbBlockBegin
  2
SCHRIFTFELD 2015-09-22_1
 70
     2
 10
0.0
 20
0.0
 30
0.0
  3
SCHRIFTFELD 2015-09-22_1
  1

  0
LINE
  5
AC
330
A9
100
AcDbEntity
  8
SCHRIFTFELD
  6
Continuous
100
AcDbLine
 10
-187.2
 20
55.25
 30
0.0
 11
0.0
 21
55.25
 31
0.0
  0
LINE
  5
AD
330
A9
100
AcDbEntity
  8
0
  6
Continuous
 62
     7
370
    18
100
AcDbLine
 10
-88.4
 20
48.875
 30
0.0
 11
0.0
 21
48.875
 31
0.0
  0
LINE
  5
AE
330
A9
100
AcDbEntity
  8
0
  6
Continuous
 62
     7
370
    18
100
AcDbLine
 10
-36.4
 20
55.25
 30
0.0
 11
-36.4
 21
48.875
 31
0.0
  0
LINE
  5
AF
330
A9
100
AcDbEntity
  8
SCHRIFTFELD
  6
Continuous
100
AcDbLine
 10
0.0
 20
38.25
 30
0.0
 11
-187.2
 21
38.25
 31
0.0
  0
LINE
  5
B0
330
A9
100
AcDbEntity
  8
SCHRIFTFELD
  6
Continuous
100
AcDbLine
 10
0.0
 20
8.5
 30
0.0
 11
-13.0
 21
8.5
 31
0.0
  0
LINE
  5
B1
330
A9
100
AcDbEntity
  8
0
  6
Continuous
 62
     7
370
    18
100
AcDbLine
 10
-44.2
 20
4.25
 30
0.0
 11
-44.2
 21
0.0
 31
0.0
  0
LINE
  5
B2
330
A9
100
AcDbEntity
  8
0
  6
Continuous
 62
     7
370
    18
100
AcDbLine
 10
-122.2
 20
38.25
 30
0.0
 11
-122.2
 21
21.25
 31
0.0
  0
LINE
  5
B3
330
A9
100
AcDbEntity
  8
0
  6
Continuous
 62
     7
370
    18
100
AcDbLine
 10
-140.4
 20
38.25
 30
0.0
 11
-140.4
 21
0.0
 31
0.0
  0
LINE
  5
B4
330
A9
100
AcDbEntity
  8
0
  6
Continuous
 62
     7
370
    18
100
AcDbLine
 10
-153.4
 20
38.25
 30
0.0
 11
-153.4
 21
0.0
 31
0.0
  0
LINE
  5
B5
330
A9
100
AcDbEntity
  8
0
  6
Continuous
 62
     7
370
    18
100
AcDbLine
 10
-179.4
 20
38.25
 30
0.0
 11
-179.4
 21
0.0
 31
0.0
  0
LINE
  5
B6
330
A9
100
AcDbEntity
  8
0
  6
Continuous
 62
     7
370
    18
100
AcDbLine
 10
-187.2
 20
34.0
 30
0.0
 11
-88.4
 21
34.0
 31
0.0
  0
LINE
  5
B7
330
A9
100
AcDbEntity
  8
0
  6
Continuous
 62
     7
370
    18
100
AcDbLine
 10
-187.2
 20
29.75
 30
0.0
 11
-88.4
 21
29.75
 31
0.0
  0
LINE
  5
B8
330
A9
100
AcDbEntity
  8
0
  6
Continuous
 62
     7
370
    18
100
AcDbLine
 10
-187.2
 20
25.5
 30
0.0
 11
-88.4
 21
25.5
 31
0.0
  0
LINE
  5
B9
330
A9
100
AcDbEntity
  8
0
  6
Continuous
 62
     7
370
    18
100
AcDbLine
 10
-187.2
 20
17.0
 30
0.0
 11
-132.6
 21
17.0
 31
0.0
  0
LINE
  5
BA
330
A9
100
AcDbEntity
  8
0
  6
Continuous
 62
     7
370
    18
100
AcDbLine
 10
-187.2
 20
12.75
 30
0.0
 11
-132.6
 21
12.75
 31
0.0
  0
LINE
  5
BB
330
A9
100
AcDbEntity
  8
0
  6
Continuous
 62
     7
370
    18
100
AcDbLine
 10
-187.2
 20
8.5
 30
0.0
 11
-132.6
 21
8.5
 31
0.0
  0
LINE
  5
BC
330
A9
100
AcDbEntity
  8
SCHRIFTFELD
  6
Continuous
100
AcDbLine
 10
-13.0
 20
17.0
 30
0.0
 11
-13.0
 21
4.25
 31
0.0
  0
LINE
  5
BD
330
A9
100
AcDbEntity
  8
SCHRIFTFELD
  6
Continuous
100
AcDbLine
 10
0.0
 20
17.0
 30
0.0
 11
-132.6
 21
17.0
 31
0.0
  0
LINE
  5
BE
330
A9
100
AcDbEntity
  8
SCHRIFTFELD
  6
Continuous
100
AcDbLine
 10
-132.6
 20
0.0
 30
0.0
 11
-132.6
 21
55.25
 31
0.0
  0
LINE
  5
BF
330
A9
100
AcDbEntity
  8
SCHRIFTFELD
  6
Continuous
100
AcDbLine
 10
-88.4
 20
0.0
 30
0.0
 11
-88.4
 21
55.25
 31
0.0
  0
LINE
  5
C0
330
A9
100
AcDbEntity
  8
0
  6
Continuous
 62
     7
370
    18
100
AcDbLine
 10
-106.6
 20
55.25
 30
0.0
 11
-106.6
 21
17.0
 31
0.0
  0
LINE
  5
C1
330
A9
100
AcDbEntity
  8
0
  6
Continuous
 62
     7
370
    18
100
AcDbLine
 10
-187.2
 20
21.25
 30
0.0
 11
-88.4
 21
21.25
 31
0.0
  0
LINE
  5
C2
330
A9
100
AcDbEntity
  8
SCHRIFTFELD
  6
Continuous
100
AcDbLine
 10
0.0
 20
4.25
 30
0.0
 11
-187.2
 21
4.25
 31
0.0
  0
LINE
  5
C3
330
A9
100
AcDbEntity
  8
SCHRIFTFELD
  6
Continuous
100
AcDbLine
 10
-187.2
 20
0.0
 30
0.0
 11
-187.2
 21
55.25
 31
0.0
  0
LINE
  5
C4
330
A9
100
AcDbEntity
  8
0
  6
Continuous
 62
     7
370
    18
100
AcDbLine
 10
0.0
 20
17.0
 30
0.0
 11
0.0
 21
0.0
 31
0.0
  0
LINE
  5
C5
330
A9
100
AcDbEntity
  8
0
  6
Continuous
 62
     7
370
    18
100
AcDbLine
 10
-44.2
 20
0.0
 30
0.0
 11
0.0
 21
0.0
 31
0.0
  0
INSERT
  5
CB
330
A9
100
AcDbEntity
  8
0
  6
Continuous
 62
     7
370
     0
100
AcDbBlockReference
  2
SW_NOTE_0_4
 10
-121.9937298532
 20
5.0353954797
 30
0.0
  0
INSERT
  5
D0
330
A9
100
AcDbEntity
  8
0
  6
Continuous
 62
     7
370
     0
100
AcDbBlockReference
  2
SW_NOTE_0_5
 10
-26.9914933281
 20
13.5781881771
 30
0.0
  0
INSERT
  5
D7
330
A9
100
AcDbEntity
  8
0
  6
Continuous
 62
     7
370
     0
100
AcDbBlockReference
  2
SW_NOTE_0_6
 10
-130.9051290282
 20
49.6643347483
 30
0.0
  0
INSERT
  5
DC
330
A9
100
AcDbEntity
  8
0
  6
Continuous
 62
     7
370
     0
100
AcDbBlockReference
  2
SW_NOTE_0_7
 10
-86.6923834968
 20
13.3260564709
 30
0.0
  0
INSERT
  5
E1
330
A9
100
AcDbEntity
  8
0
  6
Continuous
 62
     7
370
     0
100
AcDbBlockReference
  2
SW_NOTE_0_8
 10
-86.8753568745
 20
44.8047676443
 30
0.0
  0
INSERT
  5
E5
330
A9
100
AcDbEntity
  8
0
  6
Continuous
 62
     7
370
     0
100
AcDbBlockReference
  2
SW_NOTE_0_9
 10
0.0
 20
0.0
 30
0.0
  0
INSERT
  5
EA
330
A9
100
AcDbEntity
  8
0
  6
Continuous
 62
     7
370
     0
100
AcDbBlockReference
  2
SW_NOTE_0_10
 10
-86.999179986
 20
34.6076854745
 30
0.0
  0
INSERT
  5
EF
330
A9
100
AcDbEntity
  8
0
  6
Continuous
 62
     7
370
     0
100
AcDbBlockReference
  2
SW_NOTE_0_11
 10
-35.1650712329
 20
50.2665167132
 30
0.0
  0
INSERT
  5
F4
330
A9
100
AcDbEntity
  8
0
  6
Continuous
 62
     7
370
     0
100
AcDbBlockReference
  2
SW_NOTE_0_12
 10
-87.0188486779
 20
50.2665167132
 30
0.0
  0
INSERT
  5
F9
330
A9
100
AcDbEntity
  8
0
  6
Continuous
 62
     7
370
     0
100
AcDbBlockReference
  2
SW_NOTE_0_13
 10
-186.1994482759
 20
0.4755517738
 30
0.0
  0
INSERT
  5
FE
330
A9
100
AcDbEntity
  8
0
  6
Continuous
 62
     7
370
     0
100
AcDbBlockReference
  2
SW_NOTE_0_14
 10
-7.7625132759
 20
4.7632008353
 30
0.0
  0
INSERT
  5
103
330
A9
100
AcDbEntity
  8
0
  6
Continuous
 62
     7
370
     0
100
AcDbBlockReference
  2
SW_NOTE_0_15
 10
-12.0728293322
 20
13.5781881771
 30
0.0
  0
INSERT
  5
108
330
A9
100
AcDbEntity
  8
0
  6
Continuous
 62
     7
370
     0
100
AcDbBlockReference
  2
SW_NOTE_0_16
 10
-43.4836211261
 20
0.4755517738
 30
0.0
  0
INSERT
  5
10D
330
A9
100
AcDbEntity
  8
0
  6
Continuous
 62
     7
370
     0
100
AcDbBlockReference
  2
SW_NOTE_0_17
 10
-87.8625229158
 20
0.4755517738
 30
0.0
  0
INSERT
  5
112
330
A9
100
AcDbEntity
  8
0
  6
Continuous
 62
     7
370
     0
100
AcDbBlockReference
  2
SW_NOTE_0_18
 10
-139.8828109996
 20
0.4755517738
 30
0.0
  0
INSERT
  5
117
330
A9
100
AcDbEntity
  8
0
  6
Continuous
 62
     7
370
     0
100
AcDbBlockReference
  2
SW_NOTE_0_19
 10
-150.5131034483
 20
0.4755517738
 30
0.0
  0
INSERT
  5
11C
330
A9
100
AcDbEntity
  8
0
  6
Continuous
 62
     7
370
     0
100
AcDbBlockReference
  2
SW_NOTE_0_20
 10
-172.3028965517
 20
0.4755517738
 30
0.0
  0
INSERT
  5
121
330
A9
100
AcDbEntity
  8
0
  6
Continuous
 62
     7
370
     0
100
AcDbBlockReference
  2
SW_NOTE_0_21
 10
-132.5353394484
 20
21.3250499817
 30
0.0
  0
INSERT
  5
126
330
A9
100
AcDbEntity
  8
0
  6
Continuous
 62
     7
370
     0
100
AcDbBlockReference
  2
SW_NOTE_0_22
 10
-132.5353394484
 20
25.5805611123
 30
0.0
  0
INSERT
  5
12B
330
A9
100
AcDbEntity
  8
0
  6
Continuous
 62
     7
370
     0
100
AcDbBlockReference
  2
SW_NOTE_0_23
 10
-132.5353394484
 20
29.8360722428
 30
0.0
  0
INSERT
  5
130
330
A9
100
AcDbEntity
  8
0
  6
Continuous
 62
     7
370
     0
100
AcDbBlockReference
  2
SW_NOTE_0_24
 10
-120.0564242689
 20
34.0436470046
 30
0.0
  0
INSERT
  5
135
330
A9
100
AcDbEntity
  8
0
  6
Continuous
 62
     7
370
     0
100
AcDbBlockReference
  2
SW_NOTE_0_25
 10
-102.7304146661
 20
34.0436470046
 30
0.0
  0
ATTDEF
  5
136
330
A9
100
AcDbEntity
  8
0
  6
Continuous
 62
     7
370
     0
100
AcDbText
 10
0.0
 20
0.0
 30
0.0
 40
3.0
  1

100
AcDbAttributeDefinition
  3

  2
@DBW=ZEICHNUNG.VERSION
 70
     0
  0
ATTDEF
  5
137
330
A9
100
AcDbEntity
  8
0
  6
Continuous
 62
     7
370
     0
100
AcDbText
 10
0.0
 20
0.0
 30
0.0
 40
3.0
  1

100
AcDbAttributeDefinition
  3

  2
@DBW=ZEICHNUNG.ANZAHL_BLÄTTER
 70
     0
  0
ATTDEF
  5
138
330
A9
100
AcDbEntity
  8
0
  6
Continuous
 62
     7
370
     0
100
AcDbText
 10
-8.6111618863
 20
10.5433030053
 30
0.0
 40
1.8
  1
 2
 41
0.638185654
  7
SLDTEXTSTYLE1
 11
-8.6111618863
 21
9.9074348938
 31
0.0
100
AcDbAttributeDefinition
  3

  2
AUTOATTR0
 70
     0
 74
     1
  0
ATTDEF
  5
139
330
A9
100
AcDbEntity
  8
0
  6
Continuous
 62
     7
370
     0
100
AcDbText
 10
0.0
 20
0.0
 30
0.0
 40
3.0
  1

100
AcDbAttributeDefinition
  3

  2
@DBW=ZEICHNUNG.ERSETZT_DURCH
 70
     0
  0
ATTDEF
  5
13A
330
A9
100
AcDbEntity
  8
0
  6
Continuous
 62
     7
370
     0
100
AcDbText
 10
0.0
 20
0.0
 30
0.0
 40
3.0
  1

100
AcDbAttributeDefinition
  3

  2
@DBW=ZEICHNUNG.ERSATZ_FÜR
 70
     0
  0
ATTDEF
  5
13B
330
A9
100
AcDbEntity
  8
0
  6
Continuous
 62
     7
370
     0
100
AcDbText
 10
0.0
 20
0.0
 30
0.0
 40
3.0
  1

100
AcDbAttributeDefinition
  3

  2
@DBW=ZEICHNUNG.NR
 70
     0
  0
ATTDEF
  5
13C
330
A9
100
AcDbEntity
  8
0
  6
Continuous
 62
     7
370
     0
100
AcDbText
 10
0.0
 20
0.0
 30
0.0
 40
3.0
  1

100
AcDbAttributeDefinition
  3

  2
@DBW=.VBSCRIPT_KUNDEN.LST
 70
     0
  0
ATTDEF
  5
13D
330
A9
100
AcDbEntity
  8
0
  6
Continuous
 62
     7
370
     0
100
AcDbText
 10
0.0
 20
0.0
 30
0.0
 40
3.0
  1

100
AcDbAttributeDefinition
  3

  2
@DBW=DOKUMENT.GEWICHT
 70
     0
  0
ATTDEF
  5
13E
330
A9
100
AcDbEntity
  8
0
  6
Continuous
 62
     7
370
     0
100
AcDbText
 10
0.0
 20
0.0
 30
0.0
 40
3.0
  1

100
AcDbAttributeDefinition
  3

  2
@DBW=.VBSCRIPT_FN.LST
 70
     0
  0
ATTDEF
  5
13F
330
A9
100
AcDbEntity
  8
0
  6
Continuous
 62
     7
370
     0
100
AcDbText
 10
0.0
 20
0.0
 30
0.0
 40
3.0
  1

100
AcDbAttributeDefinition
  3

  2
@DBW=.VBSCRIPT_FD.LST
 70
     0
  0
ATTDEF
  5
140
330
A9
100
AcDbEntity
  8
0
  6
Continuous
 62
     7
370
     0
100
AcDbText
 10
0.0
 20
0.0
 30
0.0
 40
3.0
  1

100
AcDbAttributeDefinition
  3

  2
@DBW=ZEICHNUNG.ERSTELLER
 70
     0
  0
ATTDEF
  5
141
330
A9
100
AcDbEntity
  8
0
  6
Continuous
 62
     7
370
     0
100
AcDbText
 10
0.0
 20
0.0
 30
0.0
 40
3.0
  1

100
AcDbAttributeDefinition
  3

  2
@DBW=ZEICHNUNG.ERSTELL_DATUM
 70
     0
  0
ATTDEF
  5
142
330
A9
100
AcDbEntity
  8
0
  6
Continuous
 62
     7
370
     0
100
AcDbText
 10
0.0
 20
0.0
 30
0.0
 40
3.0
  1

100
AcDbAttributeDefinition
  3

  2
@DBW=.VBSCRIPT_D.LST
 70
     0
  0
ATTDEF
  5
143
330
A9
100
AcDbEntity
  8
0
  6
Continuous
 62
     7
370
     0
100
AcDbText
 10
0.0
 20
0.0
 30
0.0
 40
3.0
  1

100
AcDbAttributeDefinition
  3

  2
@DBW=.VBSCRIPT_C.LST
 70
     0
  0
ATTDEF
  5
144
330
A9
100
AcDbEntity
  8
0
  6
Continuous
 62
     7
370
     0
100
AcDbText
 10
0.0
 20
0.0
 30
0.0
 40
3.0
  1

100
AcDbAttributeDefinition
  3

  2
@DBW=.VBSCRIPT_B.LST
 70
     0
  0
ATTDEF
  5
145
330
A9
100
AcDbEntity
  8
0
  6
Continuous
 62
     7
370
     0
100
AcDbText
 10
0.0
 20
0.0
 30
0.0
 40
3.0
  1

100
AcDbAttributeDefinition
  3

  2
@DBW=.VBSCRIPT_A.LST
 70
     0
  0
ATTDEF
  5
146
330
A9
100
AcDbEntity
  8
0
  6
Continuous
 62
     7
370
     0
100
AcDbText
 10
0.0
 20
0.0
 30
0.0
 40
3.0
  1

100
AcDbAttributeDefinition
  3

  2
@DBW=ZEICHNUNG.MASSTAB
 70
     0
  0
ATTDEF
  5
147
330
A9
100
AcDbEntity
  8
0
  6
Continuous
 62
     7
370
     0
100
AcDbText
 10
0.0
 20
0.0
 30
0.0
 40
3.0
  1

100
AcDbAttributeDefinition
  3

  2
@DBW=ZEICHNUNG.BENENNUNG
 70
     0
  0
ENDBLK
  5
AB
330
A9
100
AcDbEntity
  8
0
100
AcDbBlockEnd
  0
BLOCK
  5
C7
330
C6
100
AcDbEntity
  8
0
100
AcDbBlockBegin
  2
SW_NOTE_0_4
 70
     0
 10
0.0
 20
0.0
 30
0.0
  3
SW_NOTE_0_4
  1

  0
MTEXT
  5
CA
330
C6
100
AcDbEntity
  8
0
  6
Continuous
 62
     0
370
     0
100
AcDbMText
 10
0.0
 20
2.3203219316
 30
0.0
 40
1.8
 41
0.0
 71
     1
 72
     1
  1
Tel. 04963 - 9110 - 0
  7
SLDTEXTSTYLE1
 73
     1
 44
1.0
  0
ENDBLK
  5
C8
330
C6
100
AcDbEntity
  8
0
100
AcDbBlockEnd
  0
BLOCK
  5
CD
330
CC
100
AcDbEntity
  8
0
100
AcDbBlockBegin
  2
SW_NOTE_0_5
 70
     0
 10
0.0
 20
0.0
 30
0.0
  3
SW_NOTE_0_5
  1

  0
MTEXT
  5
CF
330
CC
100
AcDbEntity
  8
0
  6
Continuous
 62
     0
370
     0
100
AcDbMText
 10
0.0
 20
2.3203219316
 30
0.0
 40
1.8
 41
0.0
 71
     1
 72
     1
  1
Version
  7
SLDTEXTSTYLE1
 73
     1
 44
1.0
  0
ENDBLK
  5
CE
330
CC
100
AcDbEntity
  8
0
100
AcDbBlockEnd
  0
BLOCK
  5
D2
330
D1
100
AcDbEntity
  8
0
100
AcDbBlockBegin
  2
SW_NOTE_0_6
 70
     0
 10
0.0
 20
0.0
 30
0.0
  3
SW_NOTE_0_6
  1

  0
MTEXT
  5
D4
330
D1
100
AcDbEntity
  8
0
  6
Continuous
 62
     0
370
     0
100
AcDbMText
 10
0.0
 20
3.2226693494
 30
0.0
 40
2.5
 41
0.0
 71
     1
 72
     1
  1
Allgemein-
  7
SLDTEXTSTYLE1
 73
     1
 44
1.0
  0
MTEXT
  5
D5
330
D1
100
AcDbEntity
  8
0
  6
Continuous
 62
     0
370
     0
100
AcDbMText
 10
0.0
 20
-0.0064972645
 30
0.0
 40
2.5
 41
0.0
 71
     1
 72
     1
  1
toleranzen
  7
SLDTEXTSTYLE1
 73
     1
 44
1.0
  0
MTEXT
  5
D6
330
D1
100
AcDbEntity
  8
0
  6
Continuous
 62
     0
370
     0
100
AcDbMText
 10
0.0
 20
-3.2356638784
 30
0.0
 40
2.5
 41
0.0
 71
     1
 72
     1
  1
DIN 2768- m
  7
SLDTEXTSTYLE1
 73
     1
 44
1.0
  0
ENDBLK
  5
D3
330
D1
100
AcDbEntity
  8
0
100
AcDbBlockEnd
  0
BLOCK
  5
D9
330
D8
100
AcDbEntity
  8
0
100
AcDbBlockBegin
  2
SW_NOTE_0_7
 70
     0
 10
0.0
 20
0.0
 30
0.0
  3
SW_NOTE_0_7
  1

  0
MTEXT
  5
DB
330
D8
100
AcDbEntity
  8
0
  6
Continuous
 62
     0
370
     0
100
AcDbMText
 10
0.0
 20
2.5781354795
 30
0.0
 40
2.0
 41
0.0
 71
     1
 72
     1
  1
Zchng. Nr.:
  7
SLDTEXTSTYLE1
 73
     1
 44
1.0
  0
ENDBLK
  5
DA
330
D8
100
AcDbEntity
  8
0
100
AcDbBlockEnd
  0
BLOCK
  5
DE
330
DD
100
AcDbEntity
  8
0
100
AcDbBlockBegin
  2
SW_NOTE_0_8
 70
     0
 10
0.0
 20
0.0
 30
0.0
  3
SW_NOTE_0_8
  1

  0
MTEXT
  5
E0
330
DD
100
AcDbEntity
  8
0
  6
Continuous
 62
     0
370
     0
100
AcDbMText
 10
0.0
 20
2.5781354795
 30
0.0
 40
2.0
 41
0.0
 71
     1
 72
     1
  1
Kunde:
  7
SLDTEXTSTYLE1
 73
     1
 44
1.0
  0
ENDBLK
  5
DF
330
DD
100
AcDbEntity
  8
0
100
AcDbBlockEnd
  0
BLOCK
  5
E3
330
E2
100
AcDbEntity
  8
0
100
AcDbBlockBegin
  2
SW_NOTE_0_9
 70
     0
 10
0.0
 20
0.0
 30
0.0
  3
SW_NOTE_0_9
  1

  0
ENDBLK
  5
E4
330
E2
100
AcDbEntity
  8
0
100
AcDbBlockEnd
  0
BLOCK
  5
E7
330
E6
100
AcDbEntity
  8
0
100
AcDbBlockBegin
  2
SW_NOTE_0_10
 70
     0
 10
0.0
 20
0.0
 30
0.0
  3
SW_NOTE_0_10
  1

  0
MTEXT
  5
E9
330
E6
100
AcDbEntity
  8
0
  6
Continuous
 62
     0
370
     0
100
AcDbMText
 10
0.0
 20
2.5781354795
 30
0.0
 40
2.0
 41
0.0
 71
     1
 72
     1
  1
Benennung:
  7
SLDTEXTSTYLE1
 73
     1
 44
1.0
  0
ENDBLK
  5
E8
330
E6
100
AcDbEntity
  8
0
100
AcDbBlockEnd
  0
BLOCK
  5
EC
330
EB
100
AcDbEntity
  8
0
100
AcDbBlockBegin
  2
SW_NOTE_0_11
 70
     0
 10
0.0
 20
0.0
 30
0.0
  3
SW_NOTE_0_11
  1

  0
MTEXT
  5
EE
330
EB
100
AcDbEntity
  8
0
  6
Continuous
 62
     0
370
     0
100
AcDbMText
 10
0.0
 20
3.2226693494
 30
0.0
 40
2.5
 41
0.0
 71
     1
 72
     1
  1
Gewicht
  7
SLDTEXTSTYLE1
 73
     1
 44
1.0
  0
ENDBLK
  5
ED
330
EB
100
AcDbEntity
  8
0
100
AcDbBlockEnd
  0
BLOCK
  5
F1
330
F0
100
AcDbEntity
  8
0
100
AcDbBlockBegin
  2
SW_NOTE_0_12
 70
     0
 10
0.0
 20
0.0
 30
0.0
  3
SW_NOTE_0_12
  1

  0
MTEXT
  5
F3
330
F0
100
AcDbEntity
  8
0
  6
Continuous
 62
     0
370
     0
100
AcDbMText
 10
0.0
 20
3.2226693494
 30
0.0
 40
2.5
 41
0.0
 71
     1
 72
     1
  1
Maßstab:
  7
SLDTEXTSTYLE1
 73
     1
 44
1.0
  0
ENDBLK
  5
F2
330
F0
100
AcDbEntity
  8
0
100
AcDbBlockEnd
  0
BLOCK
  5
F6
330
F5
100
AcDbEntity
  8
0
100
AcDbBlockBegin
  2
SW_NOTE_0_13
 70
     0
 10
0.0
 20
0.0
 30
0.0
  3
SW_NOTE_0_13
  1

  0
MTEXT
  5
F8
330
F5
100
AcDbEntity
  8
0
  6
Continuous
 62
     0
370
     0
100
AcDbMText
 10
0.0
 20
2.3203219316
 30
0.0
 40
1.8
 41
0.0
 71
     1
 72
     1
  1
Zust.
  7
SLDTEXTSTYLE1
 73
     1
 44
1.0
  0
ENDBLK
  5
F7
330
F5
100
AcDbEntity
  8
0
100
AcDbBlockEnd
  0
BLOCK
  5
FB
330
FA
100
AcDbEntity
  8
0
100
AcDbBlockBegin
  2
SW_NOTE_0_14
 70
     0
 10
0.0
 20
0.0
 30
0.0
  3
SW_NOTE_0_14
  1

  0
MTEXT
  5
FD
330
FA
100
AcDbEntity
  8
0
  6
Continuous
 62
     0
370
     0
100
AcDbMText
 10
0.0
 20
2.3203219316
 30
0.0
 40
1.8
 41
0.0
 71
     1
 72
     1
  1
Blätter
  7
SLDTEXTSTYLE1
 73
     1
 44
1.0
  0
ENDBLK
  5
FC
330
FA
100
AcDbEntity
  8
0
100
AcDbBlockEnd
  0
BLOCK
  5
100
330
FF
100
AcDbEntity
  8
0
100
AcDbBlockBegin
  2
SW_NOTE_0_15
 70
     0
 10
0.0
 20
0.0
 30
0.0
  3
SW_NOTE_0_15
  1

  0
MTEXT
  5
102
330
FF
100
AcDbEntity
  8
0
  6
Continuous
 62
     0
370
     0
100
AcDbMText
 10
0.0
 20
2.3203219316
 30
0.0
 40
1.8
 41
0.0
 71
     1
 72
     1
  1
Blatt
  7
SLDTEXTSTYLE1
 73
     1
 44
1.0
  0
ENDBLK
  5
101
330
FF
100
AcDbEntity
  8
0
100
AcDbBlockEnd
  0
BLOCK
  5
105
330
104
100
AcDbEntity
  8
0
100
AcDbBlockBegin
  2
SW_NOTE_0_16
 70
     0
 10
0.0
 20
0.0
 30
0.0
  3
SW_NOTE_0_16
  1

  0
MTEXT
  5
107
330
104
100
AcDbEntity
  8
0
  6
Continuous
 62
     0
370
     0
100
AcDbMText
 10
0.0
 20
2.3203219316
 30
0.0
 40
1.8
 41
0.0
 71
     1
 72
     1
  1
Ers. durch:
  7
SLDTEXTSTYLE1
 73
     1
 44
1.0
  0
ENDBLK
  5
106
330
104
100
AcDbEntity
  8
0
100
AcDbBlockEnd
  0
BLOCK
  5
10A
330
109
100
AcDbEntity
  8
0
100
AcDbBlockBegin
  2
SW_NOTE_0_17
 70
     0
 10
0.0
 20
0.0
 30
0.0
  3
SW_NOTE_0_17
  1

  0
MTEXT
  5
10C
330
109
100
AcDbEntity
  8
0
  6
Continuous
 62
     0
370
     0
100
AcDbMText
 10
0.0
 20
2.3203219316
 30
0.0
 40
1.8
 41
0.0
 71
     1
 72
     1
  1
Ers. für:
  7
SLDTEXTSTYLE1
 73
     1
 44
1.0
  0
ENDBLK
  5
10B
330
109
100
AcDbEntity
  8
0
100
AcDbBlockEnd
  0
BLOCK
  5
10F
330
10E
100
AcDbEntity
  8
0
100
AcDbBlockBegin
  2
SW_NOTE_0_18
 70
     0
 10
0.0
 20
0.0
 30
0.0
  3
SW_NOTE_0_18
  1

  0
MTEXT
  5
111
330
10E
100
AcDbEntity
  8
0
  6
Continuous
 62
     0
370
     0
100
AcDbMText
 10
0.0
 20
2.3203219316
 30
0.0
 40
1.8
 41
0.0
 71
     1
 72
     1
  1
Name
  7
SLDTEXTSTYLE1
 73
     1
 44
1.0
  0
ENDBLK
  5
110
330
10E
100
AcDbEntity
  8
0
100
AcDbBlockEnd
  0
BLOCK
  5
114
330
113
100
AcDbEntity
  8
0
100
AcDbBlockBegin
  2
SW_NOTE_0_19
 70
     0
 10
0.0
 20
0.0
 30
0.0
  3
SW_NOTE_0_19
  1

  0
MTEXT
  5
116
330
113
100
AcDbEntity
  8
0
  6
Continuous
 62
     0
370
     0
100
AcDbMText
 10
0.0
 20
2.3203219316
 30
0.0
 40
1.8
 41
0.0
 71
     1
 72
     1
  1
Datum
  7
SLDTEXTSTYLE1
 73
     1
 44
1.0
  0
ENDBLK
  5
115
330
113
100
AcDbEntity
  8
0
100
AcDbBlockEnd
  0
BLOCK
  5
119
330
118
100
AcDbEntity
  8
0
100
AcDbBlockBegin
  2
SW_NOTE_0_20
 70
     0
 10
0.0
 20
0.0
 30
0.0
  3
SW_NOTE_0_20
  1

  0
MTEXT
  5
11B
330
118
100
AcDbEntity
  8
0
  6
Continuous
 62
     0
370
     0
100
AcDbMText
 10
0.0
 20
2.3203219316
 30
0.0
 40
1.8
 41
0.0
 71
     1
 72
     1
  1
Änderung
  7
SLDTEXTSTYLE1
 73
     1
 44
1.0
  0
ENDBLK
  5
11A
330
118
100
AcDbEntity
  8
0
100
AcDbBlockEnd
  0
BLOCK
  5
11E
330
11D
100
AcDbEntity
  8
0
100
AcDbBlockBegin
  2
SW_NOTE_0_21
 70
     0
 10
0.0
 20
0.0
 30
0.0
  3
SW_NOTE_0_21
  1

  0
MTEXT
  5
120
330
11D
100
AcDbEntity
  8
0
  6
Continuous
 62
     0
370
     0
100
AcDbMText
 10
0.0
 20
3.2226693494
 30
0.0
 40
2.5
 41
0.0
 71
     1
 72
     1
  1
Norm
  7
SLDTEXTSTYLE1
 73
     1
 44
1.0
  0
ENDBLK
  5
11F
330
11D
100
AcDbEntity
  8
0
100
AcDbBlockEnd
  0
BLOCK
  5
123
330
122
100
AcDbEntity
  8
0
100
AcDbBlockBegin
  2
SW_NOTE_0_22
 70
     0
 10
0.0
 20
0.0
 30
0.0
  3
SW_NOTE_0_22
  1

  0
MTEXT
  5
125
330
122
100
AcDbEntity
  8
0
  6
Continuous
 62
     0
370
     0
100
AcDbMText
 10
0.0
 20
3.2226693494
 30
0.0
 40
2.5
 41
0.0
 71
     1
 72
     1
  1
Gepr.
  7
SLDTEXTSTYLE1
 73
     1
 44
1.0
  0
ENDBLK
  5
124
330
122
100
AcDbEntity
  8
0
100
AcDbBlockEnd
  0
BLOCK
  5
128
330
127
100
AcDbEntity
  8
0
100
AcDbBlockBegin
  2
SW_NOTE_0_23
 70
     0
 10
0.0
 20
0.0
 30
0.0
  3
SW_NOTE_0_23
  1

  0
MTEXT
  5
12A
330
127
100
AcDbEntity
  8
0
  6
Continuous
 62
     0
370
     0
100
AcDbMText
 10
0.0
 20
3.2226693494
 30
0.0
 40
2.5
 41
0.0
 71
     1
 72
     1
  1
Bearb.
  7
SLDTEXTSTYLE1
 73
     1
 44
1.0
  0
ENDBLK
  5
129
330
127
100
AcDbEntity
  8
0
100
AcDbBlockEnd
  0
BLOCK
  5
12D
330
12C
100
AcDbEntity
  8
0
100
AcDbBlockBegin
  2
SW_NOTE_0_24
 70
     0
 10
0.0
 20
0.0
 30
0.0
  3
SW_NOTE_0_24
  1

  0
MTEXT
  5
12F
330
12C
100
AcDbEntity
  8
0
  6
Continuous
 62
     0
370
     0
100
AcDbMText
 10
0.0
 20
3.2226693494
 30
0.0
 40
2.5
 41
0.0
 71
     1
 72
     1
  1
Datum
  7
SLDTEXTSTYLE1
 73
     1
 44
1.0
  0
ENDBLK
  5
12E
330
12C
100
AcDbEntity
  8
0
100
AcDbBlockEnd
  0
BLOCK
  5
132
330
131
100
AcDbEntity
  8
0
100
AcDbBlockBegin
  2
SW_NOTE_0_25
 70
     0
 10
0.0
 20
0.0
 30
0.0
  3
SW_NOTE_0_25
  1

  0
MTEXT
  5
134
330
131
100
AcDbEntity
  8
0
  6
Continuous
 62
     0
370
     0
100
AcDbMText
 10
0.0
 20
3.2226693494
 30
0.0
 40
2.5
 41
0.0
 71
     1
 72
     1
  1
Name
  7
SLDTEXTSTYLE1
 73
     1
 44
1.0
  0
ENDBLK
  5
133
330
131
100
AcDbEntity
  8
0
100
AcDbBlockEnd
  0
BLOCK
  5
149
330
148
100
AcDbEntity
  8
0
100
AcDbBlockBegin
  2
SW_NOTE_0_26
 70
     0
 10
0.0
 20
0.0
 30
0.0
  3
SW_NOTE_0_26
  1

  0
MTEXT
  5
14B
330
148
100
AcDbEntity
  8
GRAVUR
 62
     0
100
AcDbMText
 10
0.0
 20
3.8672032193
 30
0.0
 40
3.0
 41
0.0
 71
     1
 72
     1
  1
Zeichnungsnummer:UM00056770
  7
SLDTEXTSTYLE0
 73
     1
 44
1.0
  0
MTEXT
  5
14C
330
148
100
AcDbEntity
  8
GRAVUR
 62
     0
100
AcDbMText
 10
0.0
 20
-0.1327969707
 30
0.0
 40
3.0
 41
0.0
 71
     1
 72
     1
  1
Zeichnungsname:Zylinderaufnahme am Hubrahmen
  7
SLDTEXTSTYLE0
 73
     1
 44
1.0
  0
MTEXT
  5
14D
330
148
100
AcDbEntity
  8
GRAVUR
 62
     0
100
AcDbMText
 10
0.0
 20
-4.1327971607
 30
0.0
 40
3.0
 41
0.0
 71
     1
 72
     1
  1
Bearbeiter:wmuchall
  7
SLDTEXTSTYLE0
 73
     1
 44
1.0
  0
MTEXT
  5
14E
330
148
100
AcDbEntity
  8
GRAVUR
 62
     0
100
AcDbMText
 10
0.0
 20
-8.1327973507
 30
0.0
 40
3.0
 41
0.0
 71
     1
 72
     1
  1
Kundenname:
  7
SLDTEXTSTYLE0
 73
     1
 44
1.0
  0
MTEXT
  5
14F
330
148
100
AcDbEntity
  8
GRAVUR
 62
     0
100
AcDbMText
 10
0.0
 20
-12.1327975406
 30
0.0
 40
3.0
 41
0.0
 71
     1
 72
     1
  1
Maschine:
  7
SLDTEXTSTYLE0
 73
     1
 44
1.0
  0
MTEXT
  5
150
330
148
100
AcDbEntity
  8
GRAVUR
 62
     0
100
AcDbMText
 10
0.0
 20
-16.1327977306
 30
0.0
 40
3.0
 41
0.0
 71
     1
 72
     1
  1
Tabelle:
  7
SLDTEXTSTYLE0
 73
     1
 44
1.0
  0
MTEXT
  5
151
330
148
100
AcDbEntity
  8
GRAVUR
 62
     0
100
AcDbMText
 10
0.0
 20
-20.1327979206
 30
0.0
 40
3.0
 41
0.0
 71
     1
 72
     1
  1
Regelwerk:
  7
SLDTEXTSTYLE0
 73
     1
 44
1.0
  0
MTEXT
  5
152
330
148
100
AcDbEntity
  8
GRAVUR
 62
     0
100
AcDbMText
 10
0.0
 20
-24.1327981106
 30
0.0
 40
3.0
 41
0.0
 71
     1
 72
     1
  1
Material:S 235 JR
  7
SLDTEXTSTYLE0
 73
     1
 44
1.0
  0
MTEXT
  5
153
330
148
100
AcDbEntity
  8
GRAVUR
 62
     0
100
AcDbMText
 10
0.0
 20
-28.1327983006
 30
0.0
 40
3.0
 41
0.0
 71
     1
 72
     1
  1
Dicke:20
  7
SLDTEXTSTYLE0
 73
     1
 44
1.0
  0
ENDBLK
  5
14A
330
148
100
AcDbEntity
  8
0
100
AcDbBlockEnd
  0
ENDSEC
  0
SECTION
  2
ENTITIES
  0
INSERT
  5
154
330
1F
100
AcDbEntity
  8
GRAVUR
 62
     1
100
AcDbBlockReference
  2
SW_NOTE_0_26
 10
11.0227301424
 20
62.4395494445
 30
0.0
  0
LINE
  5
155
330
1F
100
AcDbEntity
  8
0
  6
Continuous
 62
     7
370
    25
100
AcDbLine
 10
214.2979772216
 20
28.3225845974
 30
0.0
 11
199.7225554114
 21
81.2830144037
 31
0.0
  0
CIRCLE
  5
156
330
1F
100
AcDbEntity
  8
0
  6
Continuous
 62
     7
370
    25
100
AcDbCircle
 10
165.977210144
 20
71.9958463181
 30
0.0
 40
17.75000000000043
  0
ARC
  5
157
330
1F
100
AcDbEntity
  8
0
  6
Continuous
 62
     7
370
    25
100
AcDbCircle
 10
209.477210144
 20
26.9958463181
 30
0.0
 40
5.000000000001337
100
AcDbArc
 50
270.0
 51
15.3876139627
  0
LINE
  5
158
330
1F
100
AcDbEntity
  8
0
  6
Continuous
 62
     7
370
    25
100
AcDbLine
 10
122.4772100722
 20
21.9958463181
 30
0.0
 11
209.4772131568
 21
21.9958463181
 31
0.0
  0
ARC
  5
159
330
1F
100
AcDbEntity
  8
0
  6
Continuous
 62
     7
370
    25
100
AcDbCircle
 10
122.477210144
 20
26.9958463181
 30
0.0
 40
5.000000000000465
100
AcDbArc
 50
164.6123860373
 51
270.0
  0
LINE
  5
15A
330
1F
100
AcDbEntity
  8
0
  6
Continuous
 62
     7
370
    25
100
AcDbLine
 10
132.2318622297
 20
81.2830144037
 30
0.0
 11
117.6564462403
 21
28.3225845974
 31
0.0
  0
ARC
  5
15B
330
1F
100
AcDbEntity
  8
0
  6
Continuous
 62
     7
370
    25
100
AcDbCircle
 10
165.977210144
 20
71.9958463181
 30
0.0
 40
35.00000000000058
100
AcDbArc
 50
15.3876139627
 51
164.6123860373
  0
MTEXT
  5
15C
330
1F
100
AcDbEntity
  8
TEXT
100
AcDbMText
 10
125.9151664925
 20
37.1685118573
 30
0.0
 40
10.0
 41
0.0
 71
     1
 72
     1
  1
UM00056770
  7
SLDTEXTSTYLE0
 73
     1
 44
1.0
  0
ENDSEC
  0
SECTION
  2
OBJECTS
  0
DICTIONARY
  5
C
330
0
100
AcDbDictionary
281
     1
  3
ACAD_GROUP
350
D
  3
ACAD_LAYOUT
350
1A
  3
ACAD_MLINESTYLE
350
17
  3
ACAD_PLOTSETTINGS
350
19
  3
ACAD_PLOTSTYLENAME
350
E
  3
ACAD_SCALELIST
350
47
  0
DICTIONARY
  5
D
102
{ACAD_REACTORS
330
C
102
}
330
C
100
AcDbDictionary
281
     1
  0
DICTIONARY
  5
1A
102
{ACAD_REACTORS
330
C
102
}
330
C
100
AcDbDictionary
281
     1
  3
Layout1
350
1E
  3
Layout2
350
26
  3
Model
350
22
  0
DICTIONARY
  5
17
102
{ACAD_REACTORS
330
C
102
}
330
C
100
AcDbDictionary
281
     1
  3
Standard
350
18
  0
DICTIONARY
  5
19
102
{ACAD_REACTORS
330
C
102
}
330
C
100
AcDbDictionary
281
     1
  0
ACDBDICTIONARYWDFLT
  5
E
102
{ACAD_REACTORS
330
C
102
}
330
C
100
AcDbDictionary
281
     1
  3
Normal
350
F
100
AcDbDictionaryWithDefault
340
F
  0
DICTIONARY
  5
47
102
{ACAD_REACTORS
330
C
102
}
330
C
100
AcDbDictionary
281
     1
  3
A0
350
48
  3
A1
350
49
  3
A2
350
4A
  3
A3
350
4B
  3
A4
350
4C
  3
A5
350
4D
  3
A6
350
4E
  3
A7
350
4F
  3
A8
350
50
  3
A9
350
51
  3
B0
350
52
  3
B1
350
53
  3
B2
350
54
  3
B3
350
55
  3
B4
350
56
  3
B5
350
57
  3
B6
350
58
  3
B7
350
59
  3
B8
350
5A
  3
B9
350
5B
  3
C0
350
5C
  3
C1
350
5D
  3
C2
350
5E
  3
C3
350
5F
  3
C4
350
60
  3
C5
350
61
  3
C6
350
62
  3
C7
350
63
  3
C8
350
64
  3
C9
350
65
  3
D0
350
66
  3
D1
350
67
  3
D2
350
68
  0
LAYOUT
  5
1E
102
{ACAD_REACTORS
330
1A
102
}
330
1A
100
AcDbPlotSettings
  1

  2
none_device
  4

  6

 40
0.0
 41
0.0
 42
0.0
 43
0.0
 44
0.0
 45
0.0
 46
0.0
 47
0.0
 48
0.0
 49
0.0
140
0.0
141
0.0
142
1.0
143
1.0
 70
   688
 72
     1
 73
     0
 74
     5
  7

 75
    16
147
1.0
148
0.0
149
0.0
100
AcDbLayout
  1
Layout1
 70
     1
 71
     1
 10
0.0
 20
0.0
 11
420.0
 21
297.0
 12
0.0
 22
0.0
 32
0.0
 14
1.0000000000E+20
 24
1.0000000000E+20
 34
1.0000000000E+20
 15
-1.0000000000E+20
 25
-1.0000000000E+20
 35
-1.0000000000E+20
146
0.0
 13
0.0
 23
0.0
 33
0.0
 16
1.0
 26
0.0
 36
0.0
 17
0.0
 27
1.0
 37
0.0
 76
     0
330
1B
  0
LAYOUT
  5
26
102
{ACAD_REACTORS
330
1A
102
}
330
1A
100
AcDbPlotSettings
  1

  2
none_device
  4

  6

 40
0.0
 41
0.0
 42
0.0
 43
0.0
 44
0.0
 45
0.0
 46
0.0
 47
0.0
 48
0.0
 49
0.0
140
0.0
141
0.0
142
1.0
143
1.0
 70
   688
 72
     1
 73
     0
 74
     5
  7

 75
    16
147
1.0
148
0.0
149
0.0
100
AcDbLayout
  1
Layout2
 70
     1
 71
     2
 10
0.0
 20
0.0
 11
0.0
 21
0.0
 12
0.0
 22
0.0
 32
0.0
 14
0.0
 24
0.0
 34
0.0
 15
0.0
 25
0.0
 35
0.0
146
0.0
 13
0.0
 23
0.0
 33
0.0
 16
1.0
 26
0.0
 36
0.0
 17
0.0
 27
1.0
 37
0.0
 76
     0
330
23
  0
LAYOUT
  5
22
102
{ACAD_REACTORS
330
1A
102
}
330
1A
100
AcDbPlotSettings
  1

  2
none_device
  4
Letter_(8.50_x_11.00_Inches)
  6

 40
6.35
 41
6.35
 42
6.35000508
 43
6.35000508
 44
215.9
 45
279.4
 46
0.0
 47
0.0
 48
0.0
 49
0.0
140
0.0
141
0.0
142
1.0
143
1.0
 70
  1712
 72
     1
 73
     0
 74
     0
  7

 75
     0
147
1.0
148
0.0
149
0.0
100
AcDbLayout
  1
Model
 70
     1
 71
     0
 10
0.0
 20
0.0
 11
3000.0
 21
1500.0
 12
0.0
 22
0.0
 32
0.0
 14
0.0
 24
0.0
 34
0.0
 15
3000.0
 25
1500.0
 35
0.0
146
0.0
 13
0.0
 23
0.0
 33
0.0
 16
1.0
 26
0.0
 36
0.0
 17
0.0
 27
1.0
 37
0.0
 76
     0
330
1F
331
29
  0
MLINESTYLE
  5
18
102
{ACAD_REACTORS
330
17
102
}
330
17
100
AcDbMlineStyle
  2
Standard
 70
     0
  3

 62
   256
 51
90.0
 52
90.0
 71
     2
 49
0.5
 62
   256
  6
BYLAYER
 49
-0.5
 62
   256
  6
BYLAYER
  0
ACDBPLACEHOLDER
  5
F
102
{ACAD_REACTORS
330
E
102
}
330
E
  0
SCALE
  5
48
102
{ACAD_REACTORS
330
47
102
}
330
47
100
AcDbScale
 70
     0
300
1:1
140
1.0
141
1.0
290
     1
  0
SCALE
  5
49
102
{ACAD_REACTORS
330
47
102
}
330
47
100
AcDbScale
 70
     0
300
1:2
140
1.0
141
2.0
290
     0
  0
SCALE
  5
4A
102
{ACAD_REACTORS
330
47
102
}
330
47
100
AcDbScale
 70
     0
300
1:4
140
1.0
141
4.0
290
     0
  0
SCALE
  5
4B
102
{ACAD_REACTORS
330
47
102
}
330
47
100
AcDbScale
 70
     0
300
1:5
140
1.0
141
5.0
290
     0
  0
SCALE
  5
4C
102
{ACAD_REACTORS
330
47
102
}
330
47
100
AcDbScale
 70
     0
300
1:8
140
1.0
141
8.0
290
     0
  0
SCALE
  5
4D
102
{ACAD_REACTORS
330
47
102
}
330
47
100
AcDbScale
 70
     0
300
1:10
140
1.0
141
10.0
290
     0
  0
SCALE
  5
4E
102
{ACAD_REACTORS
330
47
102
}
330
47
100
AcDbScale
 70
     0
300
1:16
140
1.0
141
16.0
290
     0
  0
SCALE
  5
4F
102
{ACAD_REACTORS
330
47
102
}
330
47
100
AcDbScale
 70
     0
300
1:20
140
1.0
141
20.0
290
     0
  0
SCALE
  5
50
102
{ACAD_REACTORS
330
47
102
}
330
47
100
AcDbScale
 70
     0
300
1:30
140
1.0
141
30.0
290
     0
  0
SCALE
  5
51
102
{ACAD_REACTORS
330
47
102
}
330
47
100
AcDbScale
 70
     0
300
1:40
140
1.0
141
40.0
290
     0
  0
SCALE
  5
52
102
{ACAD_REACTORS
330
47
102
}
330
47
100
AcDbScale
 70
     0
300
1:50
140
1.0
141
50.0
290
     0
  0
SCALE
  5
53
102
{ACAD_REACTORS
330
47
102
}
330
47
100
AcDbScale
 70
     0
300
1:100
140
1.0
141
100.0
290
     0
  0
SCALE
  5
54
102
{ACAD_REACTORS
330
47
102
}
330
47
100
AcDbScale
 70
     0
300
2:1
140
2.0
141
1.0
290
     0
  0
SCALE
  5
55
102
{ACAD_REACTORS
330
47
102
}
330
47
100
AcDbScale
 70
     0
300
4:1
140
4.0
141
1.0
290
     0
  0
SCALE
  5
56
102
{ACAD_REACTORS
330
47
102
}
330
47
100
AcDbScale
 70
     0
300
8:1
140
8.0
141
1.0
290
     0
  0
SCALE
  5
57
102
{ACAD_REACTORS
330
47
102
}
330
47
100
AcDbScale
 70
     0
300
10:1
140
10.0
141
1.0
290
     0
  0
SCALE
  5
58
102
{ACAD_REACTORS
330
47
102
}
330
47
100
AcDbScale
 70
     0
300
100:1
140
100.0
141
1.0
290
     0
  0
SCALE
  5
59
102
{ACAD_REACTORS
330
47
102
}
330
47
100
AcDbScale
 70
     0
300
1/128" = 1'-0"
140
0.0078125
141
12.0
290
     0
  0
SCALE
  5
5A
102
{ACAD_REACTORS
330
47
102
}
330
47
100
AcDbScale
 70
     0
300
1/64" = 1'-0"
140
0.015625
141
12.0
290
     0
  0
SCALE
  5
5B
102
{ACAD_REACTORS
330
47
102
}
330
47
100
AcDbScale
 70
     0
300
1/32" = 1'-0"
140
0.03125
141
12.0
290
     0
  0
SCALE
  5
5C
102
{ACAD_REACTORS
330
47
102
}
330
47
100
AcDbScale
 70
     0
300
1/16" = 1'-0"
140
0.0625
141
12.0
290
     0
  0
SCALE
  5
5D
102
{ACAD_REACTORS
330
47
102
}
330
47
100
AcDbScale
 70
     0
300
3/32" = 1'-0"
140
0.09375
141
12.0
290
     0
  0
SCALE
  5
5E
102
{ACAD_REACTORS
330
47
102
}
330
47
100
AcDbScale
 70
     0
300
1/8" = 1'-0"
140
0.125
141
12.0
290
     0
  0
SCALE
  5
5F
102
{ACAD_REACTORS
330
47
102
}
330
47
100
AcDbScale
 70
     0
300
3/16" = 1'-0"
140
0.1875
141
12.0
290
     0
  0
SCALE
  5
60
102
{ACAD_REACTORS
330
47
102
}
330
47
100
AcDbScale
 70
     0
300
1/4" = 1'-0"
140
0.25
141
12.0
290
     0
  0
SCALE
  5
61
102
{ACAD_REACTORS
330
47
102
}
330
47
100
AcDbScale
 70
     0
300
3/8" = 1'-0"
140
0.375
141
12.0
290
     0
  0
SCALE
  5
62
102
{ACAD_REACTORS
330
47
102
}
330
47
100
AcDbScale
 70
     0
300
1/2" = 1'-0"
140
0.5
141
12.0
290
     0
  0
SCALE
  5
63
102
{ACAD_REACTORS
330
47
102
}
330
47
100
AcDbScale
 70
     0
300
3/4" = 1'-0"
140
0.75
141
12.0
290
     0
  0
SCALE
  5
64
102
{ACAD_REACTORS
330
47
102
}
330
47
100
AcDbScale
 70
     0
300
1" = 1'-0"
140
1.0
141
12.0
290
     0
  0
SCALE
  5
65
102
{ACAD_REACTORS
330
47
102
}
330
47
100
AcDbScale
 70
     0
300
1-1/2" = 1'-0"
140
1.5
141
12.0
290
     0
  0
SCALE
  5
66
102
{ACAD_REACTORS
330
47
102
}
330
47
100
AcDbScale
 70
     0
300
3" = 1'-0"
140
3.0
141
12.0
290
     0
  0
SCALE
  5
67
102
{ACAD_REACTORS
330
47
102
}
330
47
100
AcDbScale
 70
     0
300
6" = 1'-0"
140
6.0
141
12.0
290
     0
  0
SCALE
  5
68
102
{ACAD_REACTORS
330
47
102
}
330
47
100
AcDbScale
 70
     0
300
1'-0" = 1'-0"
140
12.0
141
12.0
290
     0
  0
ENDSEC
  0
EOF
